<?xml version="1.0" encoding="UTF-8" standalone="no"?><!DOCTYPE svg PUBLIC "-//W3C//DTD SVG 1.1//EN" "http://www.w3.org/Graphics/SVG/1.1/DTD/svg11.dtd"><svg viewBox="0 0 90 90" version="1.1" xmlns="http://www.w3.org/2000/svg" xmlns:xlink="http://www.w3.org/1999/xlink" xml:space="preserve" xmlns:serif="http://www.serif.com/" style="fill-rule:evenodd;clip-rule:evenodd;stroke-linejoin:round;stroke-miterlimit:2;"><path d="M90,45c0,24.851 -20.149,45 -45,45c-24.851,0 -45,-20.149 -45,-45c0,-24.851 20.149,-45 45,-45c24.857,0 45,20.149 45,45Zm-15.62,4.915c0,-0.268 -0.259,-0.462 -0.513,-0.389l-13.69,3.958c-0.074,0.019 -0.139,0.06 -0.189,0.116c-1.503,1.659 -2.774,2.76 -3.066,3.014c-0.85,0.721 -1.904,1.114 -3.014,1.114l-4.956,0l-0,-5.053l3.939,0c0.102,0 0.199,-0.037 0.273,-0.102l0.508,-0.467c0.217,-0.199 0.476,-0.439 0.786,-0.749c0.185,-0.185 0.388,-0.383 0.587,-0.605c0.204,-0.199 0.403,-0.421 0.587,-0.638c0.31,-0.333 0.606,-0.68 0.916,-1.045c0.222,-0.241 0.425,-0.513 0.624,-0.786c0.222,-0.259 0.439,-0.55 0.643,-0.828c0.148,-0.217 0.314,-0.439 0.476,-0.675c0.148,-0.222 0.296,-0.458 0.421,-0.679c0.388,-0.601 0.716,-1.244 0.994,-1.887c0.143,-0.309 0.254,-0.638 0.365,-0.952c0.111,-0.328 0.203,-0.638 0.273,-0.966c0.166,-0.773 0.203,-1.54 0.129,-2.307c-0.018,-0.241 -0.037,-0.477 -0.092,-0.699l-0,-0.036c-0.019,-0.158 -0.056,-0.333 -0.107,-0.495c-0.166,-0.749 -0.425,-1.498 -0.753,-2.233c-0.111,-0.273 -0.241,-0.551 -0.366,-0.805c-0.296,-0.55 -0.605,-1.1 -0.957,-1.632c-0.124,-0.199 -0.272,-0.402 -0.402,-0.601c-0.273,-0.421 -0.587,-0.823 -0.878,-1.211c-0.222,-0.291 -0.477,-0.583 -0.717,-0.879c-0.24,-0.291 -0.476,-0.568 -0.717,-0.841c-0.86,-0.971 -1.761,-1.849 -2.566,-2.598c-0.147,-0.148 -0.309,-0.296 -0.476,-0.44c-0.624,-0.568 -1.193,-1.063 -1.669,-1.447c-0.24,-0.185 -0.439,-0.365 -0.624,-0.513c-0.236,-0.176 -0.421,-0.319 -0.55,-0.416c-0.037,-0.028 -0.079,-0.046 -0.12,-0.06l-0.527,-0.148l-0,-4.364c-0,-0.712 -0.287,-1.35 -0.745,-1.817c-0.457,-0.467 -1.095,-0.754 -1.798,-0.754c-1.406,-0 -2.543,1.151 -2.543,2.571l-0,2.94l-0.264,-0.074l-0.716,-0.203l-0.652,-0.181c-0.005,0 -0.009,-0.004 -0.019,-0.004l-0.013,-0l-4.947,-1.341c-0.218,-0.06 -0.403,0.176 -0.292,0.374l0.791,1.461c0.074,0.185 0.18,0.37 0.273,0.569c0.129,0.259 0.259,0.532 0.383,0.805c0.111,0.24 0.222,0.476 0.352,0.735c0.254,0.568 0.532,1.169 0.804,1.831c0.185,0.439 0.37,0.878 0.532,1.336c0.444,1.151 0.865,2.381 1.23,3.643c0.129,0.402 0.222,0.786 0.333,1.188l0.051,0.222c0.148,0.587 0.277,1.17 0.369,1.757c0.074,0.402 0.144,0.786 0.181,1.174c0.055,0.439 0.111,0.879 0.129,1.318c0.037,0.402 0.056,0.823 0.056,1.225c-0,1.026 -0.093,2.016 -0.31,2.95c-0.074,0.272 -0.148,0.564 -0.24,0.841c-0.093,0.328 -0.222,0.657 -0.347,1.008c-0.074,0.199 -0.148,0.402 -0.241,0.601c-0.457,1.1 -1.026,2.196 -1.613,3.222c-0.86,1.521 -1.725,2.858 -2.33,3.718c-0.084,0.124 -0.162,0.235 -0.231,0.342c-0.19,0.268 0.004,0.647 0.332,0.647l6.399,-0l0,5.053l-6.473,0c-1.738,0 -3.347,-0.985 -4.124,-2.561c-0.402,-0.791 -0.559,-1.66 -0.467,-2.511c0.024,-0.254 -0.166,-0.494 -0.425,-0.494l-13.075,-0c-0.222,-0 -0.402,0.18 -0.402,0.402l0,0.268c0,8.341 6.736,15.1 15.049,15.1l23.454,0c5.622,0 8.137,-6.551 11.429,-11.133c1.29,-1.794 4.392,-3.218 5.298,-3.606c0.148,-0.065 0.25,-0.213 0.25,-0.379l0,-2.899Zm-52.179,-3.403c-0.171,0.264 0.019,0.615 0.342,0.615l12.039,0c0.135,0 0.259,-0.065 0.333,-0.176c0.158,-0.24 0.305,-0.49 0.44,-0.744c1.04,-1.748 1.964,-3.639 2.302,-5.035c0.791,-3.393 -0.897,-8.844 -2.853,-13.227c-0.129,-0.291 -0.531,-0.319 -0.702,-0.051l-11.707,18.313l-0.194,0.305Z" fill="#fff" style="fill-rule:nonzero;"/></svg>